User Type,Username,Date,Text
,MikeQuest3,2010-06-15T09:02Z,"Thanks for uploading and to those seeding.
good print, no audio or video errors of any sort, not many mistakes on the srt file either. recommended for download.
Mike"
,TechnoMax,2010-10-28T11:01Z,"thanks for sharing, great film!"
,Scandale,2010-12-18T16:33Z,"General
Format                           : AVI
Format/Info                      : Audio Video Interleave
File size                        : 700 MiB
Duration                         : 1h 58mn
Overall bit rate                 : 823 Kbps
Writing application              : Nandub v1.0rc2
Writing library                  : Nandub build 1853/release

Video
ID                               : 0
Format                           : MPEG-4 Visual
Format settings, BVOP            : Yes
Format settings, QPel            : Yes
Format settings, GMC             : 2 warppoints
Format settings, Matrix          : Default (H.263)
Muxing mode                      : Packed bitstream
Codec ID                         : DX50
Codec ID/Hint                    : DivX 5
Duration                         : 1h 58mn
Bit rate                         : 735 Kbps
Width                            : 640 pixels
Height                           : 352 pixels
Display aspect ratio             : 16:9
Frame rate                       : 29.970 fps
Color space                      : YUV
Chroma subsampling               : 4:2:0
Bit depth                        : 8 bits
Scan type                        : Progressive
Bits/(Pixel*Frame)               : 0.109
Stream size                      : 625 MiB (89%)
Writing library                  : DivX 5.1.1 (Maupiti) (UTC 2003-11-19)

Audio
ID                               : 1
Format                           : MPEG Audio
Format version                   : Version 1
Format profile                   : Layer 3
Mode                             : Joint stereo
Mode extension                   : MS Stereo
Codec ID                         : 55
Codec ID/Hint                    : MP3
Duration                         : 1h 58mn
Bit rate mode                    : Variable
Bit rate                         : 74.8 Kbps
Nominal bit rate                 : 64.0 Kbps
Channel(s)                       : 2 channels
Sampling rate                    : 44.1 KHz
Stream size                      : 63.6 MiB (9%)
Alignment                        : Aligned on interleaves
Interleave, duration             : 26 ms (0.78 video frame)
Interleave, preload duration     : 244 ms
Writing library                  : LAME3.93a
Encoding settings                : -m j -V 4 -q 2 -lowpass 11 --abr 64"
